<svg xmlns="http://www.w3.org/2000/svg" viewBox="0 0 1640 624" width="1640" height="624" role="img" aria-label="Sirius FM – Frekvens">
  <defs>
  <radialGradient id="g-bg" cx="50%" cy="42%" r="78%">
    <stop offset="0%" stop-color="#141b40"></stop>
    <stop offset="55%" stop-color="#070a1c"></stop>
    <stop offset="100%" stop-color="#04060f"></stop>
  </radialGradient>
  <radialGradient id="g-core" cx="50%" cy="50%" r="50%">
    <stop offset="0%" stop-color="#ffffff"></stop><stop offset="38%" stop-color="#bfeaff"></stop>
    <stop offset="72%" stop-color="#6fd3ff"></stop><stop offset="100%" stop-color="#a98bff"></stop>
  </radialGradient>
  <radialGradient id="g-glow" cx="50%" cy="50%" r="50%">
    <stop offset="0%" stop-color="#6fd3ff" stop-opacity=".5"></stop>
    <stop offset="45%" stop-color="#a98bff" stop-opacity=".16"></stop>
    <stop offset="100%" stop-color="#a98bff" stop-opacity="0"></stop>
  </radialGradient>
  <radialGradient id="g-halo" cx="50%" cy="50%" r="50%">
    <stop offset="0%" stop-color="#3f6bd6" stop-opacity=".38"></stop>
    <stop offset="60%" stop-color="#2a3f8f" stop-opacity=".10"></stop>
    <stop offset="100%" stop-color="#04060f" stop-opacity="0"></stop>
  </radialGradient>
  <linearGradient id="g-ring" x1="0" y1="0" x2="1" y2="1">
    <stop offset="0%" stop-color="#6fd3ff" stop-opacity=".9"></stop>
    <stop offset="55%" stop-color="#a98bff" stop-opacity=".45"></stop>
    <stop offset="100%" stop-color="#6fd3ff" stop-opacity="0"></stop>
  </linearGradient>
  <linearGradient id="g-ring2" x1="0" y1="0" x2="0" y2="1">
    <stop offset="0%" stop-color="#6fd3ff"></stop><stop offset="100%" stop-color="#a98bff"></stop>
  </linearGradient>
  <linearGradient id="g-star" x1="0" y1="0" x2="1" y2="1">
    <stop offset="0%" stop-color="#ffffff"></stop><stop offset="50%" stop-color="#6fd3ff"></stop>
    <stop offset="100%" stop-color="#a98bff"></stop>
  </linearGradient>
  <linearGradient id="g-bars" x1="0" y1="1" x2="1" y2="0">
    <stop offset="0%" stop-color="#a98bff"></stop><stop offset="50%" stop-color="#6fd3ff"></stop>
    <stop offset="100%" stop-color="#ffffff"></stop>
  </linearGradient>
  <linearGradient id="g-word" x1="0" y1="0" x2="1" y2="0">
    <stop offset="0%" stop-color="#ffffff"></stop><stop offset="58%" stop-color="#6fd3ff"></stop>
    <stop offset="100%" stop-color="#a98bff"></stop>
  </linearGradient>
  <linearGradient id="g-line" x1="0" y1="0" x2="1" y2="0">
    <stop offset="0%" stop-color="#6fd3ff" stop-opacity="0"></stop>
    <stop offset="50%" stop-color="#6fd3ff" stop-opacity=".55"></stop>
    <stop offset="100%" stop-color="#a98bff" stop-opacity="0"></stop>
  </linearGradient>
</defs>
  <rect width="1640" height="624" fill="url(#g-bg)"></rect>
  <ellipse cx="820.0" cy="312" rx="689" ry="343" fill="url(#g-halo)"></ellipse>
  <g fill="#eaf2ff"><circle cx="98" cy="112" r="2.6" opacity="0.5"></circle><circle cx="213" cy="387" r="2.0" opacity="0.35"></circle><circle cx="328" cy="175" r="1.8" opacity="0.3"></circle><circle cx="443" cy="512" r="2.4" opacity="0.4"></circle><circle cx="558" cy="75" r="1.8" opacity="0.3"></circle><circle cx="672" cy="437" r="2.0" opacity="0.32"></circle><circle cx="951" cy="125" r="2.2" opacity="0.38"></circle><circle cx="1082" cy="487" r="1.8" opacity="0.3"></circle><circle cx="1214" cy="212" r="2.6" opacity="0.45"></circle><circle cx="1328" cy="412" r="2.0" opacity="0.35"></circle><circle cx="1443" cy="137" r="1.8" opacity="0.3"></circle><circle cx="1542" cy="462" r="2.4" opacity="0.4"></circle><circle cx="787" cy="562" r="1.8" opacity="0.28"></circle><circle cx="853" cy="37" r="1.8" opacity="0.28"></circle></g>
  <rect x="197" y="527" width="1246" height="2" fill="url(#g-line)" opacity=".5"></rect>
  <g id="lockup" transform="translate(820.00 336.92) scale(0.935)">
  <g transform="translate(0 -128)"><rect x="-615.0" y="-22.0" width="14" height="43.9" rx="7" fill="url(#g-bars)" opacity="0.58"></rect><rect x="-577.0" y="-31.5" width="14" height="63.0" rx="7" fill="url(#g-bars)" opacity="0.60"></rect><rect x="-539.0" y="-21.9" width="14" height="43.8" rx="7" fill="url(#g-bars)" opacity="0.62"></rect><rect x="-501.0" y="-36.5" width="14" height="73.0" rx="7" fill="url(#g-bars)" opacity="0.64"></rect><rect x="-463.0" y="-21.9" width="14" height="43.8" rx="7" fill="url(#g-bars)" opacity="0.67"></rect><rect x="-425.0" y="-39.7" width="14" height="79.5" rx="7" fill="url(#g-bars)" opacity="0.69"></rect><rect x="-387.0" y="-33.5" width="14" height="67.1" rx="7" fill="url(#g-bars)" opacity="0.71"></rect><rect x="-349.0" y="-50.4" width="14" height="100.8" rx="7" fill="url(#g-bars)" opacity="0.73"></rect><rect x="-311.0" y="-30.5" width="14" height="61.0" rx="7" fill="url(#g-bars)" opacity="0.75"></rect><rect x="-273.0" y="-41.5" width="14" height="83.0" rx="7" fill="url(#g-bars)" opacity="0.77"></rect><rect x="-235.0" y="-45.0" width="14" height="90.1" rx="7" fill="url(#g-bars)" opacity="0.79"></rect><rect x="-197.0" y="-57.7" width="14" height="115.4" rx="7" fill="url(#g-bars)" opacity="0.81"></rect><rect x="-159.0" y="-36.5" width="14" height="73.0" rx="7" fill="url(#g-bars)" opacity="0.84"></rect><rect x="-121.0" y="-56.2" width="14" height="112.5" rx="7" fill="url(#g-bars)" opacity="0.86"></rect><rect x="-83.0" y="-31.4" width="14" height="62.9" rx="7" fill="url(#g-bars)" opacity="0.88"></rect><rect x="-45.0" y="-53.6" width="14" height="107.1" rx="7" fill="url(#g-bars)" opacity="0.90"></rect><rect x="-7.0" y="-42.7" width="14" height="85.4" rx="7" fill="url(#g-bars)" opacity="0.92"></rect><rect x="31.0" y="-60.9" width="14" height="121.7" rx="7" fill="url(#g-bars)" opacity="0.90"></rect><rect x="69.0" y="-35.1" width="14" height="70.2" rx="7" fill="url(#g-bars)" opacity="0.88"></rect><rect x="107.0" y="-45.5" width="14" height="90.9" rx="7" fill="url(#g-bars)" opacity="0.86"></rect><rect x="145.0" y="-47.1" width="14" height="94.2" rx="7" fill="url(#g-bars)" opacity="0.84"></rect><rect x="183.0" y="-57.7" width="14" height="115.4" rx="7" fill="url(#g-bars)" opacity="0.81"></rect><rect x="221.0" y="-34.9" width="14" height="69.8" rx="7" fill="url(#g-bars)" opacity="0.79"></rect><rect x="259.0" y="-51.3" width="14" height="102.6" rx="7" fill="url(#g-bars)" opacity="0.77"></rect><rect x="297.0" y="-27.4" width="14" height="54.7" rx="7" fill="url(#g-bars)" opacity="0.75"></rect><rect x="335.0" y="-44.3" width="14" height="88.7" rx="7" fill="url(#g-bars)" opacity="0.73"></rect><rect x="373.0" y="-33.5" width="14" height="67.1" rx="7" fill="url(#g-bars)" opacity="0.71"></rect><rect x="411.0" y="-45.1" width="14" height="90.3" rx="7" fill="url(#g-bars)" opacity="0.69"></rect><rect x="449.0" y="-24.4" width="14" height="48.9" rx="7" fill="url(#g-bars)" opacity="0.67"></rect><rect x="487.0" y="-29.5" width="14" height="59.1" rx="7" fill="url(#g-bars)" opacity="0.64"></rect><rect x="525.0" y="-28.3" width="14" height="56.5" rx="7" fill="url(#g-bars)" opacity="0.62"></rect><rect x="563.0" y="-31.5" width="14" height="63.0" rx="7" fill="url(#g-bars)" opacity="0.60"></rect><rect x="601.0" y="-17.0" width="14" height="34.0" rx="7" fill="url(#g-bars)" opacity="0.58"></rect></g>
  <g transform="translate(0 -196.7) scale(0.62)"><path d="M0 -30 Q3 -3 30 0 Q3 3 0 30 Q-3 3 -30 0 Q-3 -3 0 -30 Z" fill="#ffffff" opacity=".95"></path></g>
  <text x="0" y="34" text-anchor="middle" fill="url(#g-word)" font-family="Inter, 'Helvetica Neue', Arial, sans-serif" font-weight="800" font-size="140" letter-spacing="22">SIRIUS</text>
  <text x="0" y="80" text-anchor="middle" fill="#93a4c7" font-family="Inter, 'Helvetica Neue', Arial, sans-serif" font-weight="600" font-size="28" letter-spacing="14">WEB&#160;&#160;&#160;RADIO</text>
  
  <g>
    <rect id="urlC-rect" x="-172.9" y="108" width="345.9" height="54" rx="27.0" fill="rgba(14,20,40,0.55)" stroke="rgba(140,170,230,0.22)"></rect>
    <text id="urlC" x="0" y="144.7" text-anchor="middle" fill="#eaf2ff" font-family="Inter, 'Helvetica Neue', Arial, sans-serif" font-weight="600" font-size="27" letter-spacing="3">www.siriusfm.no</text>
  </g>
  </g>
</svg>
