<svg xmlns="http://www.w3.org/2000/svg" viewBox="0 0 1200 630" width="1200" height="630" fill="none" role="img" aria-label="Sirius Web Radio – siriusfm.no">
  <defs>
    <radialGradient id="OG-bg" cx="30%" cy="45%" r="80%">
      <stop offset="0%"   stop-color="#132347"/>
      <stop offset="55%"  stop-color="#070c1d"/>
      <stop offset="100%" stop-color="#04060f"/>
    </radialGradient>
    <radialGradient id="OG-core" cx="50%" cy="50%" r="50%">
      <stop offset="0%"  stop-color="#ffffff"/>
      <stop offset="38%" stop-color="#bfeaff"/>
      <stop offset="72%" stop-color="#6fd3ff"/>
      <stop offset="100%" stop-color="#a98bff"/>
    </radialGradient>
    <radialGradient id="OG-glow" cx="50%" cy="50%" r="50%">
      <stop offset="0%"   stop-color="#6fd3ff" stop-opacity=".55"/>
      <stop offset="45%"  stop-color="#a98bff" stop-opacity=".18"/>
      <stop offset="100%" stop-color="#a98bff" stop-opacity="0"/>
    </radialGradient>
    <linearGradient id="OG-ring" x1="0" y1="0" x2="1" y2="1">
      <stop offset="0%"   stop-color="#6fd3ff" stop-opacity=".9"/>
      <stop offset="55%"  stop-color="#a98bff" stop-opacity=".45"/>
      <stop offset="100%" stop-color="#6fd3ff" stop-opacity="0"/>
    </linearGradient>
    <linearGradient id="OG-word" x1="0" y1="0" x2="1" y2="0">
      <stop offset="0%"   stop-color="#ffffff"/>
      <stop offset="60%"  stop-color="#6fd3ff"/>
      <stop offset="100%" stop-color="#a98bff"/>
    </linearGradient>
  </defs>

  <rect width="1200" height="630" fill="url(#OG-bg)"/>

  <!-- stjernestøv -->
  <g fill="#eaf2ff">
    <circle cx="118" cy="112" r="2.6" opacity=".55"/><circle cx="1062" cy="146" r="2" opacity=".45"/>
    <circle cx="196" cy="548" r="2.2" opacity=".4"/><circle cx="1004" cy="522" r="3" opacity=".5"/>
    <circle cx="700" cy="86" r="1.8" opacity=".35"/><circle cx="88" cy="352" r="1.8" opacity=".3"/>
    <circle cx="1128" cy="330" r="2.4" opacity=".35"/><circle cx="560" cy="574" r="1.8" opacity=".3"/>
  </g>

  <!-- stjernemerke -->
  <g transform="translate(318 315) scale(2.7) translate(-50 -50)">
    <circle cx="50" cy="50" r="46" fill="url(#OG-glow)"/>
    <ellipse cx="50" cy="50" rx="40" ry="14.5" stroke="url(#OG-ring)" stroke-width="1.6"
             transform="rotate(-24 50 50)" opacity=".85"/>
    <path d="M50 18 Q52.4 47.6 82 50 Q52.4 52.4 50 82 Q47.6 52.4 18 50 Q47.6 47.6 50 18 Z"
          fill="#a98bff" opacity=".5" transform="rotate(45 50 50)"/>
    <path d="M50 3 Q53 47 97 50 Q53 53 50 97 Q47 53 3 50 Q47 47 50 3 Z" fill="url(#OG-core)"/>
    <circle cx="50" cy="50" r="7" fill="#ffffff" opacity=".95"/>
    <circle cx="50" cy="50" r="11.5" fill="url(#OG-core)" opacity=".35"/>
  </g>

  <!-- ordmerke -->
  <text x="566" y="300" fill="url(#OG-word)"
        font-family="Inter, 'Helvetica Neue', Arial, sans-serif" font-weight="800"
        font-size="112" letter-spacing="12">SIRIUS</text>
  <text x="572" y="356" fill="#93a4c7"
        font-family="Inter, 'Helvetica Neue', Arial, sans-serif" font-weight="600"
        font-size="27" letter-spacing="12">WEB&#160;&#160;&#160;RADIO</text>

  <g>
    <rect x="566" y="400" width="300" height="58" rx="29" fill="rgba(14,20,40,0.55)"
          stroke="rgba(140,170,230,0.22)"/>
    <text x="716" y="438" text-anchor="middle" fill="#eaf2ff"
          font-family="Inter, 'Helvetica Neue', Arial, sans-serif" font-weight="600"
          font-size="26" letter-spacing="4">siriusfm.no</text>
  </g>
</svg>
